<?xml version="1.0" encoding="UTF-8"?>
<svg version="1.1" xmlns="http://www.w3.org/2000/svg" width="1024" height="1024">
<path d="M0 0 C337.92 0 675.84 0 1024 0 C1024 337.92 1024 675.84 1024 1024 C686.08 1024 348.16 1024 0 1024 C0 686.08 0 348.16 0 0 Z " fill="#0D1422" transform="translate(0,0)"/>
<path d="M0 0 C11.11604886 3.87841425 21.09170907 17.45229649 29.16760254 25.55169678 C30.80732554 27.19007059 32.44734517 28.82814757 34.08764648 30.46594238 C37.50655303 33.88191463 40.92185148 37.30144238 44.33459473 40.72357178 C48.71033802 45.11076294 53.09507296 49.48884065 57.4825058 53.86433792 C60.86266517 57.23727912 64.23805774 60.61495808 67.61201477 63.99410248 C69.22769875 65.61112026 70.84486875 67.22665467 72.46354675 68.84067535 C74.71807716 71.09013544 76.96611236 73.34589106 79.21252441 75.60345459 C79.88157806 76.26845978 80.55063171 76.93346497 81.23995972 77.61862183 C81.85090485 78.2352066 82.46184998 78.85179138 83.09130859 79.48706055 C83.88761311 80.28449614 83.88761311 80.28449614 84.70000458 81.09804153 C87.76368267 84.72297059 88.32408277 87.79692342 88.53479004 92.52825928 C87.1521894 99.11318773 80.98881335 104.08724489 76.41540527 108.62493896 C75.64910797 109.39313461 74.88281067 110.16133026 74.09329224 110.95280457 C71.56953076 113.48025845 69.03866282 116.00046082 66.50744629 118.52044678 C64.74878582 120.27791468 62.99049536 122.03575291 61.2325592 123.79394531 C57.55294258 127.47199982 53.86999617 131.1466757 50.18444824 134.81878662 C45.45577547 139.53043878 40.73375086 144.24867073 36.01396084 148.96921921 C32.38637198 152.59653649 28.75618536 156.22124428 25.12510872 159.84506989 C23.38254889 161.58444402 21.64059717 163.32442759 19.89925957 165.06502533 C17.46964796 167.49247413 15.03677529 169.91660458 12.60290527 172.33978271 C11.88126694 173.06187424 11.1596286 173.78396576 10.41612244 174.52793884 C9.75306091 175.18673538 9.08999939 175.84553192 8.40684509 176.52429199 C7.83223258 177.09722866 7.25762007 177.67016533 6.66559505 178.26046371 C3.73023631 180.95860553 1.62242477 182.0628794 -2.30114746 182.22357178 C-3.05138184 182.27513428 -3.80161621 182.32669678 -4.57458496 182.37982178 C-7.46559941 181.57302705 -9.00513016 180.22830785 -10.86242676 177.89526367 C-13.27328482 172.97325651 -12.520392 167.14547483 -12.41442871 161.79388428 C-12.40509258 160.43483791 -12.39798024 159.0757746 -12.39299011 157.71670532 C-12.37398239 154.15542392 -12.32493867 150.59517699 -12.26947021 147.03430176 C-12.21814113 143.39440909 -12.19544717 139.75434776 -12.17028809 136.11419678 C-12.11681137 128.98356758 -12.03157654 121.85363754 -11.92614746 114.72357178 C-12.8377245 114.72641968 -12.8377245 114.72641968 -13.76771724 114.72932512 C-49.80049899 114.8412595 -85.83325078 114.92702676 -121.86617028 114.97889842 C-126.1944312 114.98515182 -130.52269176 114.99162345 -134.85095215 114.99822998 C-135.71261671 114.99954153 -136.57428128 115.00085308 -137.46205689 115.00220438 C-151.40688689 115.02395021 -165.35161363 115.06336718 -179.29638241 115.10933576 C-193.60916132 115.15612333 -207.92188622 115.18387203 -222.23473847 115.19401425 C-231.06380796 115.20086865 -239.89258557 115.2225033 -248.7215652 115.26315411 C-254.77914355 115.28962091 -260.8365714 115.29756389 -266.89420335 115.29107866 C-270.3872019 115.28788184 -273.87969109 115.29271913 -277.37259865 115.31959915 C-281.16615187 115.34451986 -284.95846197 115.3384784 -288.75204468 115.32484436 C-289.84740032 115.33940857 -290.94275596 115.35397277 -292.0713042 115.36897832 C-300.08731839 115.29124557 -306.86768235 113.49234798 -312.86833847 107.9200123 C-317.83673698 102.50946929 -319.41972723 97.66096018 -319.23474121 90.34857178 C-318.41507572 83.37622738 -315.34342026 78.43714877 -310.00036621 74.01263428 C-302.96469696 69.64018446 -297.27255749 69.29822663 -289.11280823 69.36280823 C-287.92668062 69.36024495 -286.74055302 69.35768168 -285.51848215 69.35504073 C-282.23910924 69.3509631 -278.96009465 69.36030266 -275.68076408 69.37537491 C-272.13961376 69.38835775 -268.59847945 69.38394423 -265.05731201 69.38166809 C-258.92630643 69.38009677 -252.7953968 69.38949113 -246.66441536 69.40638161 C-237.80011493 69.43078628 -228.93586078 69.43857838 -220.07153039 69.44234558 C-205.68897738 69.44890776 -191.30647547 69.4688626 -176.9239502 69.49725342 C-162.95455175 69.52480002 -148.9851672 69.54603066 -135.01574707 69.55877686 C-134.15434441 69.55956503 -133.29294176 69.5603532 -132.40543599 69.56116525 C-128.08393392 69.56508043 -123.76243176 69.56887154 -119.44092953 69.57260096 C-83.60263276 69.6036896 -47.76439409 69.65651905 -11.92614746 69.72357178 C-11.93725052 68.94762665 -11.94835358 68.17168152 -11.95979309 67.3722229 C-12.06014298 60.04550815 -12.13618645 52.71912843 -12.18520832 45.39190483 C-12.21125889 41.62520818 -12.24657147 37.85908121 -12.30334473 34.0927124 C-12.35783025 30.45518554 -12.38760214 26.81820522 -12.40053368 23.18030167 C-12.40974424 21.79521204 -12.42773105 20.41015102 -12.45479774 19.02529526 C-12.68392891 6.81176647 -12.68392891 6.81176647 -9.52062988 2.88812256 C-6.1547893 0.08003536 -4.40857352 -0.77574018 0 0 Z " fill="#FDFDFC" transform="translate(650.9261474609375,342.27642822265625)"/>
<path d="M0 0 C3.42997499 2.79262859 4.77461212 4.49035073 5.43301392 8.90032959 C5.5798199 12.58695374 5.56132191 16.24082788 5.48828125 19.9296875 C5.47894512 21.28873387 5.47183278 22.64779718 5.46684265 24.00686646 C5.44783493 27.56814786 5.39879121 31.12839479 5.34332275 34.68927002 C5.29199367 38.32916269 5.26929971 41.96922402 5.24414062 45.609375 C5.19066391 52.74000419 5.10542908 59.86993423 5 67 C5.59925415 66.99848112 6.1985083 66.99696224 6.81592166 66.99539733 C42.34768904 66.90584779 77.87943696 66.83723496 113.41129374 66.79573868 C117.67946945 66.79073597 121.94764494 66.78555867 126.21582031 66.78027344 C127.06552242 66.7792242 127.91522452 66.77817495 128.79067518 66.77709392 C142.54149014 66.75969777 156.29223809 66.72816444 170.04301332 66.69138882 C184.15691231 66.65395739 198.27077624 66.63175949 212.38472283 66.62364602 C221.09090981 66.61816281 229.79690733 66.60085656 238.50303598 66.56833413 C244.47650385 66.54715905 250.44987406 66.54080672 256.42337672 66.54599449 C259.86769866 66.54855164 263.31168997 66.54468489 266.75595284 66.5231781 C270.49681526 66.50323884 274.23687108 66.50807637 277.97775269 66.51898193 C279.05754454 66.50733057 280.13733639 66.4956792 281.2498492 66.48367476 C288.72662133 66.54247574 296.09767208 67.57481458 301.91153419 72.67780852 C306.14530606 77.21323831 308.69728148 82.22508023 309.375 88.4375 C308.60189178 95.78202813 305.90433186 100.60380631 301.20703125 106.23828125 C294.59377585 111.51718069 287.25099505 111.42549548 279.18029785 111.36076355 C277.41820079 111.36460846 277.41820079 111.36460846 275.62050581 111.36853105 C272.37759497 111.3726038 269.13504786 111.36328293 265.89217997 111.34819686 C262.38853916 111.33519959 258.88491425 111.33962856 255.3812561 111.34190369 C249.31683877 111.3434741 243.25251853 111.33408927 237.18812561 111.31719017 C228.4201284 111.29277313 219.65217797 111.28499214 210.88415045 111.2812262 C196.6574409 111.27466595 182.43078305 111.25471638 168.20410156 111.22631836 C154.3870469 111.19876673 140.57000629 111.17753856 126.75292969 111.16479492 C125.47466127 111.16361267 125.47466127 111.16361267 124.17056924 111.16240653 C119.89529003 111.15849132 115.62001071 111.15470022 111.34473133 111.15097082 C75.8964507 111.1198882 40.44823013 111.06706404 5 111 C5.00999275 112.12966438 5.00999275 112.12966438 5.02018738 113.28215027 C5.08036296 120.38846069 5.12600706 127.49468246 5.15543652 134.60117626 C5.17107533 138.25449198 5.19228048 141.90759671 5.22631836 145.56079102 C5.25897625 149.08805216 5.27686644 152.61511068 5.28463173 156.14251137 C5.29285133 158.13944308 5.31626061 160.13629358 5.33988953 162.13310242 C5.34011612 163.35399063 5.34034271 164.57487885 5.34057617 165.83276367 C5.35056892 167.44159676 5.35056892 167.44159676 5.36076355 169.08293152 C4.84693859 173.23762673 3.12110707 175.83885339 0.25 178.8125 C-3.04677442 180.55246428 -5.32056389 180.44406988 -9 180 C-14.37559897 176.94671442 -18.47251679 172.81119039 -22.80957031 168.44921875 C-23.94723343 167.31681259 -23.94723343 167.31681259 -25.10787964 166.16152954 C-27.60300216 163.67517988 -30.09077276 161.18162128 -32.578125 158.6875 C-34.31324517 156.95372747 -36.0486621 155.2202519 -37.78436279 153.48706055 C-41.41549331 149.85887503 -45.04299043 146.22710541 -48.66796875 142.59277344 C-53.31736898 137.93196214 -57.97571249 133.28020922 -62.63679886 128.63108826 C-66.21941672 125.05569123 -69.79726501 121.47555201 -73.37368011 117.89395142 C-75.08984262 116.17645392 -76.80749434 114.46044314 -78.52664948 112.74594116 C-80.92530476 110.35235647 -83.31746949 107.9524689 -85.70800781 105.55078125 C-86.4207486 104.84208893 -87.13348938 104.13339661 -87.86782837 103.40322876 C-88.51821075 102.74720673 -89.16859314 102.09118469 -89.83868408 101.4152832 C-90.40424641 100.84896683 -90.96980873 100.28265045 -91.55250931 99.69917297 C-94.07352142 96.73982016 -94.94454565 94.49908913 -95.375 90.625 C-94.59077265 83.04413566 -88.42819067 78.14066827 -83.265625 73.00683594 C-82.49118042 72.22888672 -81.71673584 71.4509375 -80.91882324 70.64941406 C-78.36754396 68.08935991 -75.80905152 65.53665823 -73.25 62.984375 C-71.47138696 61.20441437 -69.69307087 59.42415696 -67.91503906 57.64361572 C-64.19269877 53.91833014 -60.46686287 50.19657621 -56.73828125 46.47753906 C-52.43102511 42.18118169 -48.13104262 37.87764537 -43.83473587 33.57034087 C-39.69380442 29.41923552 -35.54726312 25.27377595 -31.39831543 21.1306839 C-29.63616048 19.36986407 -27.87549264 17.6075547 -26.11633301 15.84374237 C-23.66048278 13.38282224 -21.19832849 10.92838915 -18.734375 8.47558594 C-18.0069812 7.74414368 -17.2795874 7.01270142 -16.53015137 6.25909424 C-15.85730103 5.59188354 -15.18445068 4.92467285 -14.49121094 4.23724365 C-13.91014587 3.65693264 -13.32908081 3.07662163 -12.73040771 2.47872543 C-8.47660166 -1.15637811 -5.43798935 -1.52645315 0 0 Z " fill="#FEFEFD" transform="translate(412,509)"/>
<path d="M0 0 C95.04 0 190.08 0 288 0 C284.22944134 1.88527933 283.06556921 2.24961418 279.10371017 2.24609566 C278.11342843 2.25007775 277.12314668 2.25405985 276.1028564 2.25816262 C275.01726034 2.25233693 273.93166429 2.24651125 272.81317139 2.24050903 C271.65819192 2.24221788 270.50321246 2.24392673 269.31323361 2.24568737 C266.1069671 2.24841443 262.90086185 2.2421548 259.69461441 2.23213124 C256.2372564 2.22350165 252.77990603 2.22641656 249.32254028 2.22793579 C243.3322852 2.22898495 237.34207366 2.22270509 231.35182953 2.21146011 C222.69092768 2.19521231 214.03004691 2.18999785 205.36913148 2.18748413 C191.3176903 2.1831059 177.26627233 2.16979331 163.21484375 2.15087891 C149.56445431 2.13252343 135.91407117 2.1183653 122.26367188 2.10986328 C121.42239002 2.10933783 120.58110816 2.10881239 119.71433291 2.10827102 C115.49390739 2.10566096 111.27348183 2.10313354 107.05305624 2.10064721 C72.03535428 2.07991071 37.01767928 2.04468169 2 2 C2.00444122 2.71996658 2.00888245 3.43993317 2.01345825 4.18171692 C2.05352322 10.96490332 2.08397843 17.74807205 2.10362434 24.53134632 C2.11406404 28.01875161 2.12822649 31.50605916 2.15087891 34.9934082 C2.17675512 39.00212546 2.18647123 43.01073997 2.1953125 47.01953125 C2.20563507 48.27272659 2.21595764 49.52592194 2.22659302 50.8170929 C2.22674408 51.97806992 2.22689514 53.13904694 2.22705078 54.33520508 C2.231492 55.35890701 2.23593323 56.38260895 2.24050903 57.43733215 C2 60 2 60 0 63 C0 42.21 0 21.42 0 0 Z " fill="#020610" transform="translate(417,620)"/>
</svg>
